<svg xmlns="http://www.w3.org/2000/svg" viewBox="0 0 260 200">
  <rect x="20" y="60" width="160" height="80" rx="10" fill="#000"/>
  <circle cx="70" cy="50" r="22" fill="#000"/>
  <circle cx="120" cy="50" r="22" fill="#000"/>
  <rect x="180" y="70" width="65" height="60" rx="6" fill="#000"/>
  <g transform="translate(150 100) scale(1.25) translate(-187 -235)">
    <path fill="#ff7a00" d="m187.60106 185.45364q4.608 0 9.408 1.728 4.8 1.536 8.832 4.608 4.224 3.072 7.104 7.296 2.88 4.032 3.84 9.024 1.536 9.216 0 16.704-1.344 7.488-4.416 13.44-3.072 5.76-7.296 10.176-4.032 4.416-7.68 7.296-3.648 2.688-6.336 4.224-2.496 1.536-2.688 1.536-9.216 5.76-19.2 4.608-9.792-.96-18.432-5.568v43.2l-17.28-16.704v-40.128h-.192v-67.584h-12.864l-9.6-16.896h113.856l9.6 16.896h-83.52v24.96q1.152-.96 4.8-4.032 3.648-3.072 8.832-6.336 5.184-3.264 11.328-5.76 6.144-2.688 11.904-2.688zm-36.864 54.72q6.528 11.136 13.824 13.824 7.488 2.496 14.208-.192 6.912-2.88 12.288-9.6 5.376-6.912 7.872-14.592 2.688-7.68 1.536-14.784-1.152-7.104-7.296-10.752-2.688-1.536-5.568-2.112-2.688-.576-7.296.96-4.416 1.344-11.52 5.568-7.104 4.224-18.048 12.48z"/>
  </g>
</svg>
